<svg width="20" height="20" viewBox="0 0 20 20" fill="none" xmlns="http://www.w3.org/2000/svg">
<path d="M15.0351 17.0113C14.9628 17.0891 14.8792 17.1604 14.7842 17.2234C13.5196 18.0621 12.0478 18.5596 10.5131 18.6513C8.39756 18.7776 6.30912 18.1239 4.64291 16.8138C2.97671 15.5037 1.84833 13.6282 1.47126 11.542C1.0942 9.45584 1.49461 7.30377 2.59673 5.493C3.69886 3.68223 5.42625 2.33836 7.45206 1.71566C9.47787 1.09297 11.6616 1.23465 13.59 2.11389C15.5185 2.99312 17.0578 4.54894 17.9169 6.48695C18.5401 7.89282 18.7739 9.42907 18.6098 10.9378C18.5062 11.8893 17.5125 12.3951 16.6005 12.1045C15.6888 11.8139 15.2172 10.8278 15.1935 9.87122C15.1767 9.19423 15.0278 8.52144 14.7489 7.89218C14.2334 6.72938 13.3098 5.79589 12.1527 5.26835C10.9957 4.7408 9.68545 4.6558 8.46996 5.02941C7.25448 5.40303 6.21804 6.20935 5.55677 7.29581C4.89549 8.38228 4.65525 9.67352 4.88149 10.9252C5.10773 12.1769 5.78476 13.3023 6.78448 14.0883C7.7842 14.8744 9.03727 15.2666 10.3066 15.1908C10.9865 15.1502 11.6458 14.9768 12.2497 14.6863L7.02651 9.46134C8.37988 8.10753 10.5741 8.10753 11.9275 9.46134L18.6663 16.2024C17.6845 17.1846 16.26 17.4542 15.0351 17.0113Z" fill="white"/>
</svg>
